<?xml version="1.0" encoding="UTF-8"?>
<!DOCTYPE svg PUBLIC "-//W3C//DTD SVG 1.1//EN" "http://www.w3.org/Graphics/SVG/1.1/DTD/svg11.dtd">
<svg xmlns="http://www.w3.org/2000/svg" version="1.1" width="180px" height="180px" style="shape-rendering:geometricPrecision; text-rendering:geometricPrecision; image-rendering:optimizeQuality; fill-rule:evenodd; clip-rule:evenodd" xmlns:xlink="http://www.w3.org/1999/xlink">
<g><path style="opacity:1" fill="#b1857c" d="M -0.5,-0.5 C 2.83333,-0.5 6.16667,-0.5 9.5,-0.5C 6.33311,10.3278 2.99977,20.9945 -0.5,31.5C -0.5,20.8333 -0.5,10.1667 -0.5,-0.5 Z"/></g>
<g><path style="opacity:1" fill="#ad7c76" d="M 14.5,-0.5 C 19.1667,-0.5 23.8333,-0.5 28.5,-0.5C 27.2368,4.03194 25.4035,8.36527 23,12.5C 18.327,18.516 14.1604,24.8494 10.5,31.5C 7.94384,32.5434 5.77717,34.2101 4,36.5C 3.21086,34.2884 3.37753,32.2884 4.5,30.5C 7.66472,20.1966 10.9981,9.86329 14.5,-0.5 Z"/></g>
<g><path style="opacity:1" fill="#b5847c" d="M 32.5,-0.5 C 40.8333,-0.5 49.1667,-0.5 57.5,-0.5C 55.4145,5.92971 52.4145,11.9297 48.5,17.5C 46.5,18.8333 44.5,18.8333 42.5,17.5C 45.083,14.0026 47.4164,10.3359 49.5,6.5C 46.8122,5.20259 44.3122,5.53593 42,7.5C 38.4053,12.8114 34.9053,18.1448 31.5,23.5C 28.7872,25.2135 26.7872,27.5468 25.5,30.5C 19.7034,34.7953 14.3701,39.6286 9.5,45C 6.51622,47.3261 3.18288,48.8261 -0.5,49.5C -0.5,47.8333 -0.5,46.1667 -0.5,44.5C 1.11327,42.7304 3.11327,41.5637 5.5,41C 17.1424,28.945 26.1424,15.1116 32.5,-0.5 Z"/></g>
<g><path style="opacity:1" fill="#926467" d="M 57.5,-0.5 C 58.1667,-0.5 58.8333,-0.5 59.5,-0.5C 57.0383,5.75681 54.0383,11.7568 50.5,17.5C 52.5,18.8333 54.5,18.8333 56.5,17.5C 61.5026,12.1594 65.5026,6.15944 68.5,-0.5C 69.5,-0.5 70.5,-0.5 71.5,-0.5C 61.7361,24.1023 44.0695,39.6023 18.5,46C 12.2903,51.0492 5.95695,55.8825 -0.5,60.5C -0.5,56.8333 -0.5,53.1667 -0.5,49.5C 3.18288,48.8261 6.51622,47.3261 9.5,45C 14.3701,39.6286 19.7034,34.7953 25.5,30.5C 28.0046,30.0198 30.3379,29.0198 32.5,27.5C 34.1233,28.4756 35.4567,27.9756 36.5,26C 38.3921,25.0266 40.3921,24.3599 42.5,24C 41.1667,23.6667 39.8333,23.3333 38.5,23C 41.9093,21.2597 45.5759,20.2597 49.5,20C 43.1853,19.579 37.1853,20.7457 31.5,23.5C 34.9053,18.1448 38.4053,12.8114 42,7.5C 44.3122,5.53593 46.8122,5.20259 49.5,6.5C 47.4164,10.3359 45.083,14.0026 42.5,17.5C 44.5,18.8333 46.5,18.8333 48.5,17.5C 52.4145,11.9297 55.4145,5.92971 57.5,-0.5 Z"/></g>
<g><path style="opacity:1" fill="#b4867b" d="M 59.5,-0.5 C 62.5,-0.5 65.5,-0.5 68.5,-0.5C 65.5026,6.15944 61.5026,12.1594 56.5,17.5C 54.5,18.8333 52.5,18.8333 50.5,17.5C 54.0383,11.7568 57.0383,5.75681 59.5,-0.5 Z"/></g>
<g><path style="opacity:1" fill="#b5847c" d="M 71.5,-0.5 C 77.1667,-0.5 82.8333,-0.5 88.5,-0.5C 86.8209,7.20492 84.1542,14.5383 80.5,21.5C 80.573,23.0269 79.9063,24.0269 78.5,24.5C 73.8333,29.8333 68.8333,34.8333 63.5,39.5C 59.5707,42.6306 55.2373,44.9639 50.5,46.5C 44.5508,47.5793 38.5508,47.746 32.5,47C 31.0337,46.3645 29.7003,45.5312 28.5,44.5C 11.4832,51.8373 2.31653,64.8373 1,83.5C 0.721579,82.5842 0.221579,81.9175 -0.5,81.5C -0.5,74.5 -0.5,67.5 -0.5,60.5C 5.95695,55.8825 12.2903,51.0492 18.5,46C 44.0695,39.6023 61.7361,24.1023 71.5,-0.5 Z"/></g>
<g><path style="opacity:1" fill="#b4837a" d="M 91.5,-0.5 C 95.5,-0.5 99.5,-0.5 103.5,-0.5C 102.576,7.60538 100.242,15.272 96.5,22.5C 90.6539,34.0109 81.6539,42.0109 69.5,46.5C 67.8008,46.6602 66.1341,46.4935 64.5,46C 72.6578,40.6895 78.3244,33.5228 81.5,24.5C 86.7595,17.0791 90.0928,8.74576 91.5,-0.5 Z"/></g>
<g><path style="opacity:1" fill="#b6837b" d="M 108.5,-0.5 C 113.5,-0.5 118.5,-0.5 123.5,-0.5C 122.996,3.50664 122.83,7.50664 123,11.5C 124.772,7.68704 125.605,3.68704 125.5,-0.5C 128.167,-0.5 130.833,-0.5 133.5,-0.5C 132.561,14.0421 127.227,26.7088 117.5,37.5C 115.4,40.1041 113.067,42.6041 110.5,45C 109.365,45.7494 108.365,45.5827 107.5,44.5C 108.624,43.086 109.624,41.586 110.5,40C 110.167,39.8333 109.833,39.6667 109.5,39.5C 106.129,42.8715 102.463,45.8715 98.5,48.5C 92.6293,50.3226 86.6293,50.8226 80.5,50C 86.6852,46.3136 91.6852,41.4803 95.5,35.5C 96.5063,34.6043 96.5063,33.9377 95.5,33.5C 103.761,23.7223 108.095,12.389 108.5,-0.5 Z"/></g>
<g><path style="opacity:1" fill="#b7857d" d="M 140.5,-0.5 C 149.833,-0.5 159.167,-0.5 168.5,-0.5C 169.332,4.48078 169.498,9.48078 169,14.5C 167.8,20.5961 166.3,26.5961 164.5,32.5C 163.41,37.568 161.076,41.9013 157.5,45.5C 156.833,45.8333 156.167,46.1667 155.5,46.5C 155.607,44.6214 155.107,44.2881 154,45.5C 152.726,48.3911 151.226,51.0578 149.5,53.5C 149.672,52.5084 149.338,51.8417 148.5,51.5C 145.849,52.6113 142.849,52.6113 139.5,51.5C 139.167,47.5 138.833,47.5 138.5,51.5C 136.897,51.6882 135.563,51.1882 134.5,50C 136.116,49.3848 137.449,48.3848 138.5,47C 137.833,46.6667 137.167,46.3333 136.5,46C 138.698,42.9772 141.031,40.1438 143.5,37.5C 146.389,34.7442 148.556,31.4109 150,27.5C 150.667,26.1667 151.333,26.1667 152,27.5C 153.329,21.5365 153.996,15.5365 154,9.5C 153.586,9.04265 153.086,8.70931 152.5,8.5C 151.621,12.1541 150.787,15.8208 150,19.5C 148.512,21.8202 146.679,21.9869 144.5,20C 139.36,18.54 135.026,19.7067 131.5,23.5C 136.477,24.4066 141.477,25.0733 146.5,25.5C 146.416,28.3274 145.75,30.994 144.5,33.5C 139.027,41.1387 132.36,47.6387 124.5,53C 125.094,53.4643 125.761,53.631 126.5,53.5C 124.786,54.7384 122.786,55.405 120.5,55.5C 121.458,54.0384 122.624,52.7051 124,51.5C 124.667,50.8333 124.667,50.1667 124,49.5C 122.296,51.3734 120.463,53.0401 118.5,54.5C 119.116,53.2022 119.116,52.2022 118.5,51.5C 114.688,50.6762 110.688,50.1762 106.5,50C 111.377,46.6239 115.377,42.4572 118.5,37.5C 123.469,31.6881 128.303,25.6881 133,19.5C 136.591,13.2249 139.091,6.5582 140.5,-0.5 Z"/></g>
<g><path style="opacity:1" fill="#b6877c" d="M 172.5,-0.5 C 174.833,-0.5 177.167,-0.5 179.5,-0.5C 179.5,10.8333 179.5,22.1667 179.5,33.5C 174.13,41.7178 168.13,49.5511 161.5,57C 157.973,57.8075 154.64,57.6408 151.5,56.5C 158.228,53.4385 162.894,48.4385 165.5,41.5C 167.501,38.2882 169.501,34.9549 171.5,31.5C 170.833,30.8333 170.167,30.1667 169.5,29.5C 170.309,27.9291 170.643,26.2624 170.5,24.5C 171.971,16.2422 172.638,7.90886 172.5,-0.5 Z"/></g>
<g><path style="opacity:1" fill="#693331" d="M 123.5,-0.5 C 124.167,-0.5 124.833,-0.5 125.5,-0.5C 125.605,3.68704 124.772,7.68704 123,11.5C 122.83,7.50664 122.996,3.50664 123.5,-0.5 Z"/></g>
<g><path style="opacity:1" fill="#571d21" d="M 13.5,-0.5 C 13.8333,-0.5 14.1667,-0.5 14.5,-0.5C 10.9981,9.86329 7.66472,20.1966 4.5,30.5C 6.09164,19.7285 9.09164,9.39519 13.5,-0.5 Z"/></g>
<g><path style="opacity:1" fill="#c85b7a" d="M 88.5,-0.5 C 88.8333,-0.5 89.1667,-0.5 89.5,-0.5C 88.4328,7.71969 85.4328,15.053 80.5,21.5C 84.1542,14.5383 86.8209,7.20492 88.5,-0.5 Z"/></g>
<g><path style="opacity:1" fill="#bb637c" d="M 168.5,-0.5 C 169.5,-0.5 170.5,-0.5 171.5,-0.5C 172.088,11.2349 169.754,22.2349 164.5,32.5C 166.3,26.5961 167.8,20.5961 169,14.5C 169.498,9.48078 169.332,4.48078 168.5,-0.5 Z"/></g>
<g><path style="opacity:1" fill="#53282f" d="M 171.5,-0.5 C 171.833,-0.5 172.167,-0.5 172.5,-0.5C 172.638,7.90886 171.971,16.2422 170.5,24.5C 167.01,33.8046 162.176,42.4713 156,50.5C 156.134,48.8107 156.634,47.144 157.5,45.5C 161.076,41.9013 163.41,37.568 164.5,32.5C 169.754,22.2349 172.088,11.2349 171.5,-0.5 Z"/></g>
<g><path style="opacity:1" fill="#6d313b" d="M 133.5,-0.5 C 135.833,-0.5 138.167,-0.5 140.5,-0.5C 139.091,6.5582 136.591,13.2249 133,19.5C 128.303,25.6881 123.469,31.6881 118.5,37.5C 118.167,37.5 117.833,37.5 117.5,37.5C 127.227,26.7088 132.561,14.0421 133.5,-0.5 Z"/></g>
<g><path style="opacity:1" fill="#9d4f65" d="M 9.5,-0.5 C 10.8333,-0.5 12.1667,-0.5 13.5,-0.5C 9.09164,9.39519 6.09164,19.7285 4.5,30.5C 3.37753,32.2884 3.21086,34.2884 4,36.5C 5.77717,34.2101 7.94384,32.5434 10.5,31.5C 7.16667,35.5 3.5,39.1667 -0.5,42.5C -0.5,38.8333 -0.5,35.1667 -0.5,31.5C 2.99977,20.9945 6.33311,10.3278 9.5,-0.5 Z"/></g>
<g><path style="opacity:1" fill="#8b515e" d="M 106.5,-0.5 C 107.167,-0.5 107.833,-0.5 108.5,-0.5C 108.095,12.389 103.761,23.7223 95.5,33.5C 94.1667,34.5 92.8333,35.5 91.5,36.5C 90.7611,36.631 90.0944,36.4643 89.5,36C 91.3333,34.1667 93.1667,32.3333 95,30.5C 97.7304,24.7065 100.73,19.0399 104,13.5C 105.373,8.92764 106.206,4.26097 106.5,-0.5 Z"/></g>
<g><path style="opacity:1" fill="#7d545c" d="M 28.5,-0.5 C 29.8333,-0.5 31.1667,-0.5 32.5,-0.5C 26.1424,15.1116 17.1424,28.945 5.5,41C 3.11327,41.5637 1.11327,42.7304 -0.5,44.5C -0.5,43.8333 -0.5,43.1667 -0.5,42.5C 3.5,39.1667 7.16667,35.5 10.5,31.5C 14.1604,24.8494 18.327,18.516 23,12.5C 25.4035,8.36527 27.2368,4.03194 28.5,-0.5 Z"/></g>
<g><path style="opacity:1" fill="#ca5d7b" d="M 103.5,-0.5 C 104.167,-0.5 104.833,-0.5 105.5,-0.5C 104.241,7.96048 101.241,15.6271 96.5,22.5C 100.242,15.272 102.576,7.60538 103.5,-0.5 Z"/></g>
<g><path style="opacity:1" fill="#85545e" d="M 143.5,37.5 C 143.833,36.1667 144.167,34.8333 144.5,33.5C 145.75,30.994 146.416,28.3274 146.5,25.5C 141.477,25.0733 136.477,24.4066 131.5,23.5C 135.026,19.7067 139.36,18.54 144.5,20C 146.679,21.9869 148.512,21.8202 150,19.5C 150.787,15.8208 151.621,12.1541 152.5,8.5C 153.086,8.70931 153.586,9.04265 154,9.5C 153.996,15.5365 153.329,21.5365 152,27.5C 151.333,26.1667 150.667,26.1667 150,27.5C 148.556,31.4109 146.389,34.7442 143.5,37.5 Z"/></g>
<g><path style="opacity:1" fill="#6f3441" d="M 25.5,30.5 C 26.7872,27.5468 28.7872,25.2135 31.5,23.5C 37.1853,20.7457 43.1853,19.579 49.5,20C 45.5759,20.2597 41.9093,21.2597 38.5,23C 39.8333,23.3333 41.1667,23.6667 42.5,24C 40.3921,24.3599 38.3921,25.0266 36.5,26C 35.4567,27.9756 34.1233,28.4756 32.5,27.5C 30.3379,29.0198 28.0046,30.0198 25.5,30.5 Z"/></g>
<g><path style="opacity:1" fill="#b54c67" d="M 78.5,24.5 C 75.1667,31.1667 70.1667,36.1667 63.5,39.5C 68.8333,34.8333 73.8333,29.8333 78.5,24.5 Z"/></g>
<g><path style="opacity:1" fill="#5d2830" d="M 105.5,-0.5 C 105.833,-0.5 106.167,-0.5 106.5,-0.5C 106.206,4.26097 105.373,8.92764 104,13.5C 100.73,19.0399 97.7304,24.7065 95,30.5C 93.1667,32.3333 91.3333,34.1667 89.5,36C 90.0944,36.4643 90.7611,36.631 91.5,36.5C 85.5655,42.8006 78.2322,46.4673 69.5,47.5C 69.5,47.1667 69.5,46.8333 69.5,46.5C 81.6539,42.0109 90.6539,34.0109 96.5,22.5C 101.241,15.6271 104.241,7.96048 105.5,-0.5 Z"/></g>
<g><path style="opacity:1" fill="#541e22" d="M 89.5,-0.5 C 90.1667,-0.5 90.8333,-0.5 91.5,-0.5C 90.0928,8.74576 86.7595,17.0791 81.5,24.5C 74.071,34.5395 64.7377,42.2062 53.5,47.5C 52.791,46.596 51.791,46.2627 50.5,46.5C 55.2373,44.9639 59.5707,42.6306 63.5,39.5C 70.1667,36.1667 75.1667,31.1667 78.5,24.5C 79.9063,24.0269 80.573,23.0269 80.5,21.5C 85.4328,15.053 88.4328,7.71969 89.5,-0.5 Z"/></g>
<g><path style="opacity:1" fill="#9b5f69" d="M 170.5,24.5 C 170.643,26.2624 170.309,27.9291 169.5,29.5C 170.167,30.1667 170.833,30.8333 171.5,31.5C 169.501,34.9549 167.501,38.2882 165.5,41.5C 162.611,45.8989 159.111,49.8989 155,53.5C 154.667,52.8333 154.333,52.1667 154,51.5C 153.634,53.4517 152.801,55.1184 151.5,56.5C 154.64,57.6408 157.973,57.8075 161.5,57C 168.13,49.5511 174.13,41.7178 179.5,33.5C 179.5,34.8333 179.5,36.1667 179.5,37.5C 176.654,44.1969 173.487,50.8635 170,57.5C 169.667,56.8333 169.333,56.1667 169,55.5C 167.352,56.717 165.519,57.5503 163.5,58C 159.778,58.2382 156.111,58.7382 152.5,59.5C 151.583,58.8728 150.583,58.5394 149.5,58.5C 146.849,56.8006 146.849,55.134 149.5,53.5C 149.393,55.3786 149.893,55.7119 151,54.5C 152.397,51.6462 153.897,48.9795 155.5,46.5C 156.167,46.1667 156.833,45.8333 157.5,45.5C 156.634,47.144 156.134,48.8107 156,50.5C 162.176,42.4713 167.01,33.8046 170.5,24.5 Z"/></g>
<g><path style="opacity:1" fill="#f8d8da" d="M 95.5,33.5 C 96.5063,33.9377 96.5063,34.6043 95.5,35.5C 91.7024,38.7961 88.0357,42.2961 84.5,46C 81.2889,47.7501 77.9556,49.2501 74.5,50.5C 82.8743,53.3948 90.8743,52.7281 98.5,48.5C 100.582,48.528 102.416,47.8613 104,46.5C 104.167,46.8333 104.333,47.1667 104.5,47.5C 103.329,49.1693 101.996,50.6693 100.5,52C 100.667,52.5 100.833,53 101,53.5C 102.019,52.3128 103.186,51.3128 104.5,50.5C 108.941,52.7986 113.608,53.1319 118.5,51.5C 119.116,52.2022 119.116,53.2022 118.5,54.5C 117.496,56.6773 118.162,57.0107 120.5,55.5C 122.786,55.405 124.786,54.7384 126.5,53.5C 128.787,53.2761 130.953,52.6094 133,51.5C 133.902,51.7432 134.735,52.0766 135.5,52.5C 133.844,54.0603 131.844,55.0603 129.5,55.5C 128.761,55.369 128.094,55.5357 127.5,56C 128.938,56.2189 130.271,56.7189 131.5,57.5C 129.257,58.4742 126.924,58.8076 124.5,58.5C 124.631,57.6236 124.298,56.9569 123.5,56.5C 122.476,57.8518 121.476,59.1851 120.5,60.5C 119.508,60.3284 118.842,60.6618 118.5,61.5C 117.577,60.6971 116.577,60.5304 115.5,61C 111.634,64.4863 108.967,68.653 107.5,73.5C 107.5,74.1667 107.5,74.8333 107.5,75.5C 99.5221,85.6784 95.0221,97.345 94,110.5C 92.8173,111.731 91.6507,111.731 90.5,110.5C 92.3013,106.683 93.6347,102.683 94.5,98.5C 93.689,97.7836 93.0223,96.9503 92.5,96C 94.6347,88.563 97.468,81.3963 101,74.5C 102.485,68.6237 100.319,65.1237 94.5,64C 81.794,64.1737 69.294,62.6737 57,59.5C 55.9302,59.528 55.0968,59.8614 54.5,60.5C 52.7028,59.2702 50.7028,58.6036 48.5,58.5C 47.5,58.1667 46.8333,57.5 46.5,56.5C 43.4591,51.4332 42.7924,52.0999 44.5,58.5C 42.4727,58.6621 40.4727,58.4955 38.5,58C 37.3204,56.1039 35.8204,54.6039 34,53.5C 32.2874,54.1374 32.1207,55.1374 33.5,56.5C 31.7086,57.1698 30.0419,57.8365 28.5,58.5C 26.6656,59.494 24.9989,59.494 23.5,58.5C 22.928,57.0267 22.0946,55.6934 21,54.5C 20.6664,56.8473 20.833,59.1806 21.5,61.5C 19.5165,61.3832 17.8498,62.0499 16.5,63.5C 15.2519,62.9598 14.0852,62.2931 13,61.5C 13.3333,63.1667 13.6667,64.8333 14,66.5C 13.221,67.7282 12.221,68.7282 11,69.5C 9.83824,68.8132 8.67157,68.6466 7.5,69C 9.5,70.3333 11.5,71.6667 13.5,73C 10.4052,74.5339 7.40516,74.7005 4.5,73.5C 7.47974,60.5194 15.1464,51.5194 27.5,46.5C 29.9441,48.0538 32.6108,49.0538 35.5,49.5C 43.2603,51.8204 51.0936,51.8204 59,49.5C 62.9137,50.7823 66.4137,50.1156 69.5,47.5C 78.2322,46.4673 85.5655,42.8006 91.5,36.5C 92.8333,35.5 94.1667,34.5 95.5,33.5 Z"/></g>
<g><path style="opacity:1" fill="#464047" d="M 155.5,46.5 C 153.897,48.9795 152.397,51.6462 151,54.5C 149.893,55.7119 149.393,55.3786 149.5,53.5C 151.226,51.0578 152.726,48.3911 154,45.5C 155.107,44.2881 155.607,44.6214 155.5,46.5 Z"/></g>
<g><path style="opacity:1" fill="#805c62" d="M 81.5,24.5 C 78.3244,33.5228 72.6578,40.6895 64.5,46C 66.1341,46.4935 67.8008,46.6602 69.5,46.5C 69.5,46.8333 69.5,47.1667 69.5,47.5C 66.4137,50.1156 62.9137,50.7823 59,49.5C 51.0936,51.8204 43.2603,51.8204 35.5,49.5C 41.7316,49.9638 47.7316,49.2971 53.5,47.5C 64.7377,42.2062 74.071,34.5395 81.5,24.5 Z"/></g>
<g><path style="opacity:1" fill="#635360" d="M 117.5,37.5 C 117.833,37.5 118.167,37.5 118.5,37.5C 115.377,42.4572 111.377,46.6239 106.5,50C 110.688,50.1762 114.688,50.6762 118.5,51.5C 113.608,53.1319 108.941,52.7986 104.5,50.5C 103.186,51.3128 102.019,52.3128 101,53.5C 100.833,53 100.667,52.5 100.5,52C 101.996,50.6693 103.329,49.1693 104.5,47.5C 104.333,47.1667 104.167,46.8333 104,46.5C 102.416,47.8613 100.582,48.528 98.5,48.5C 102.463,45.8715 106.129,42.8715 109.5,39.5C 109.833,39.6667 110.167,39.8333 110.5,40C 109.624,41.586 108.624,43.086 107.5,44.5C 108.365,45.5827 109.365,45.7494 110.5,45C 113.067,42.6041 115.4,40.1041 117.5,37.5 Z"/></g>
<g><path style="opacity:1" fill="#615564" d="M 95.5,35.5 C 91.6852,41.4803 86.6852,46.3136 80.5,50C 86.6293,50.8226 92.6293,50.3226 98.5,48.5C 90.8743,52.7281 82.8743,53.3948 74.5,50.5C 77.9556,49.2501 81.2889,47.7501 84.5,46C 88.0357,42.2961 91.7024,38.7961 95.5,35.5 Z"/></g>
<g><path style="opacity:1" fill="#49303a" d="M 144.5,33.5 C 144.167,34.8333 143.833,36.1667 143.5,37.5C 141.031,40.1438 138.698,42.9772 136.5,46C 137.167,46.3333 137.833,46.6667 138.5,47C 137.449,48.3848 136.116,49.3848 134.5,50C 135.563,51.1882 136.897,51.6882 138.5,51.5C 138.833,47.5 139.167,47.5 139.5,51.5C 142.849,52.6113 145.849,52.6113 148.5,51.5C 146.784,53.0248 144.784,54.0248 142.5,54.5C 139.789,54.8151 137.456,54.1484 135.5,52.5C 134.735,52.0766 133.902,51.7432 133,51.5C 130.953,52.6094 128.787,53.2761 126.5,53.5C 125.761,53.631 125.094,53.4643 124.5,53C 132.36,47.6387 139.027,41.1387 144.5,33.5 Z"/></g>
<g><path style="opacity:1" fill="#1d181a" d="M 120.5,55.5 C 118.162,57.0107 117.496,56.6773 118.5,54.5C 120.463,53.0401 122.296,51.3734 124,49.5C 124.667,50.1667 124.667,50.8333 124,51.5C 122.624,52.7051 121.458,54.0384 120.5,55.5 Z"/></g>
<g><path style="opacity:1" fill="#f5dee4" d="M 148.5,51.5 C 149.338,51.8417 149.672,52.5084 149.5,53.5C 146.849,55.134 146.849,56.8006 149.5,58.5C 146.763,57.969 144.096,57.1356 141.5,56C 142.056,55.6174 142.389,55.1174 142.5,54.5C 144.784,54.0248 146.784,53.0248 148.5,51.5 Z"/></g>
<g><path style="opacity:1" fill="#2b2b32" d="M 165.5,41.5 C 162.894,48.4385 158.228,53.4385 151.5,56.5C 152.801,55.1184 153.634,53.4517 154,51.5C 154.333,52.1667 154.667,52.8333 155,53.5C 159.111,49.8989 162.611,45.8989 165.5,41.5 Z"/></g>
<g><path style="opacity:1" fill="#a77aaa" d="M 46.5,56.5 C 45.596,57.209 45.2627,58.209 45.5,59.5C 42.2234,59.7839 39.0567,59.4505 36,58.5C 33.2731,59.7979 30.4398,60.7979 27.5,61.5C 27.0618,61.5654 26.7284,61.3988 26.5,61C 27.8333,60.3333 29.1667,59.6667 30.5,59C 29.9056,58.5357 29.2389,58.369 28.5,58.5C 30.0419,57.8365 31.7086,57.1698 33.5,56.5C 32.1207,55.1374 32.2874,54.1374 34,53.5C 35.8204,54.6039 37.3204,56.1039 38.5,58C 40.4727,58.4955 42.4727,58.6621 44.5,58.5C 42.7924,52.0999 43.4591,51.4332 46.5,56.5 Z"/></g>
<g><path style="opacity:1" fill="#1b1218" d="M 129.5,55.5 C 132.127,56.0916 134.794,56.4249 137.5,56.5C 137.389,57.1174 137.056,57.6174 136.5,58C 139.72,59.3524 143.053,60.1857 146.5,60.5C 147.167,60.1667 147.833,59.8333 148.5,59.5C 148.5,59.8333 148.5,60.1667 148.5,60.5C 147.449,61.2223 146.782,62.2223 146.5,63.5C 137.252,60.508 127.919,60.1747 118.5,62.5C 118.5,62.1667 118.5,61.8333 118.5,61.5C 118.842,60.6618 119.508,60.3284 120.5,60.5C 122.38,60.7709 123.713,60.1042 124.5,58.5C 126.924,58.8076 129.257,58.4742 131.5,57.5C 130.271,56.7189 128.938,56.2189 127.5,56C 128.094,55.5357 128.761,55.369 129.5,55.5 Z"/></g>
<g><path style="opacity:1" fill="#ebd5dc" d="M 137.5,56.5 C 140.943,57.0592 143.943,58.3926 146.5,60.5C 143.053,60.1857 139.72,59.3524 136.5,58C 137.056,57.6174 137.389,57.1174 137.5,56.5 Z"/></g>
<g><path style="opacity:1" fill="#724c63" d="M 179.5,37.5 C 179.5,39.1667 179.5,40.8333 179.5,42.5C 176.456,47.5817 173.622,52.915 171,58.5C 170.667,62.5 170.333,66.5 170,70.5C 169.722,69.5842 169.222,68.9175 168.5,68.5C 167.852,66.9142 167.352,65.2475 167,63.5C 166.257,65.6447 165.424,65.8114 164.5,64C 165.67,62.4134 166.67,60.7467 167.5,59C 162.666,60.1502 157.666,60.6502 152.5,60.5C 151.167,60.1667 149.833,59.8333 148.5,59.5C 147.833,59.8333 147.167,60.1667 146.5,60.5C 143.943,58.3926 140.943,57.0592 137.5,56.5C 134.794,56.4249 132.127,56.0916 129.5,55.5C 131.844,55.0603 133.844,54.0603 135.5,52.5C 137.456,54.1484 139.789,54.8151 142.5,54.5C 142.389,55.1174 142.056,55.6174 141.5,56C 144.096,57.1356 146.763,57.969 149.5,58.5C 150.583,58.5394 151.583,58.8728 152.5,59.5C 156.111,58.7382 159.778,58.2382 163.5,58C 165.519,57.5503 167.352,56.717 169,55.5C 169.333,56.1667 169.667,56.8333 170,57.5C 173.487,50.8635 176.654,44.1969 179.5,37.5 Z"/></g>
<g><path style="opacity:1" fill="#fcfbfb" d="M 54.5,60.5 C 55.0968,59.8614 55.9302,59.528 57,59.5C 69.294,62.6737 81.794,64.1737 94.5,64C 100.319,65.1237 102.485,68.6237 101,74.5C 97.468,81.3963 94.6347,88.563 92.5,96C 93.0223,96.9503 93.689,97.7836 94.5,98.5C 93.6347,102.683 92.3013,106.683 90.5,110.5C 91.6507,111.731 92.8173,111.731 94,110.5C 95.0221,97.345 99.5221,85.6784 107.5,75.5C 112.061,71.5558 116.727,67.7224 121.5,64C 128.434,61.7331 135.101,62.3998 141.5,66C 145.061,69.0726 148.728,71.9059 152.5,74.5C 153.303,75.4232 153.47,76.4232 153,77.5C 148.574,82.6892 144.907,88.3558 142,94.5C 140.187,95.6091 139.354,94.9424 139.5,92.5C 139.647,89.5569 140.313,86.7236 141.5,84C 140.767,82.2341 140.433,80.4008 140.5,78.5C 139.5,71.5 135.5,67.5 128.5,66.5C 128.615,68.9468 129.615,70.9468 131.5,72.5C 131.666,77.8437 131.499,83.1771 131,88.5C 130.329,89.2524 129.496,89.5858 128.5,89.5C 127.391,89.4431 126.391,89.1098 125.5,88.5C 123.953,86.1934 123.287,83.5267 123.5,80.5C 123.346,77.2628 124.013,74.2628 125.5,71.5C 128.086,68.2211 127.086,67.0545 122.5,68C 116.631,73.8185 114.964,80.6519 117.5,88.5C 117.552,91.3462 118.552,93.6796 120.5,95.5C 121.492,95.3284 122.158,95.6618 122.5,96.5C 121.449,97.2223 120.782,98.2223 120.5,99.5C 108.245,120.481 114.245,129.648 138.5,127C 139.737,126.768 140.737,126.268 141.5,125.5C 143.048,125.821 143.715,126.821 143.5,128.5C 141.583,131.331 139.917,134.331 138.5,137.5C 135.167,140.167 132.167,143.167 129.5,146.5C 126.545,148.122 123.878,150.122 121.5,152.5C 119.973,152.427 118.973,153.094 118.5,154.5C 106.753,162.421 93.7534,167.421 79.5,169.5C 76.0439,169.182 72.7106,168.348 69.5,167C 62.4469,163.473 55.4469,159.973 48.5,156.5C 38.6778,150.192 29.8445,142.525 22,133.5C 20.2389,130.589 18.7389,127.589 17.5,124.5C 17.56,123.957 17.8933,123.624 18.5,123.5C 23.6625,127.251 29.4958,128.918 36,128.5C 42.055,129.037 47.3883,127.37 52,123.5C 52.6667,120.167 52.6667,116.833 52,113.5C 50.0242,110.699 47.5242,108.532 44.5,107C 45.4158,106.722 46.0825,106.222 46.5,105.5C 47.7095,105.068 48.7095,104.401 49.5,103.5C 50.7759,102.614 50.7759,101.614 49.5,100.5C 46.2921,101.802 42.9588,102.469 39.5,102.5C 39.5,103.5 39.5,104.5 39.5,105.5C 37.139,105.326 34.8056,104.993 32.5,104.5C 26.3306,103.765 20.3306,103.931 14.5,105C 12.5911,106.356 10.9245,107.856 9.5,109.5C 8.83333,108.833 8.16667,108.167 7.5,107.5C 6.52039,103.674 5.68706,103.674 5,107.5C 3.95054,106.483 2.78387,106.316 1.5,107C 3.28721,108.319 5.28721,109.152 7.5,109.5C 8.74955,112.006 9.41622,114.673 9.5,117.5C 8.12656,117.657 6.79323,117.49 5.5,117C 3.62976,114.96 1.62976,113.127 -0.5,111.5C -0.5,106.833 -0.5,102.167 -0.5,97.5C 0.72549,98.937 1.72549,100.604 2.5,102.5C 3.16667,103.833 3.83333,103.833 4.5,102.5C 2.80841,99.7692 1.14175,97.1025 -0.5,94.5C -0.5,91.5 -0.5,88.5 -0.5,85.5C 0.879222,88.3859 2.87922,90.8859 5.5,93C 6.16667,93.6667 6.83333,93.6667 7.5,93C 2.48935,88.4803 1.15602,82.9803 3.5,76.5C 7.46591,77.1621 11.4659,77.4955 15.5,77.5C 19.9883,73.8564 24.6549,70.3564 29.5,67C 37.8887,62.4451 46.222,62.4451 54.5,67C 56.9833,69.4062 59.65,71.5729 62.5,73.5C 62.8333,73.1667 63.1667,72.8333 63.5,72.5C 60.7259,68.1043 57.0593,64.6043 52.5,62C 54.5,62.3333 56.5,62.6667 58.5,63C 57.3066,61.9054 55.9733,61.072 54.5,60.5 Z"/></g>
<g><path style="opacity:1" fill="#963ab0" d="M 124.5,58.5 C 123.713,60.1042 122.38,60.7709 120.5,60.5C 121.476,59.1851 122.476,57.8518 123.5,56.5C 124.298,56.9569 124.631,57.6236 124.5,58.5 Z"/></g>
<g><path style="opacity:1" fill="#a246e2" d="M 148.5,60.5 C 148.5,60.1667 148.5,59.8333 148.5,59.5C 149.833,59.8333 151.167,60.1667 152.5,60.5C 154.258,64.5927 156.758,65.2593 160,62.5C 160.168,65.5062 158.668,67.1728 155.5,67.5C 155.573,65.9731 154.906,64.9731 153.5,64.5C 151.833,63.1667 150.167,61.8333 148.5,60.5 Z"/></g>
<g><path style="opacity:1" fill="#241724" d="M 46.5,56.5 C 46.8333,57.5 47.5,58.1667 48.5,58.5C 42.0837,59.972 35.4171,61.472 28.5,63C 25.293,63.5717 23.6263,65.405 23.5,68.5C 20.2814,68.7759 17.6148,70.1093 15.5,72.5C 15.0618,72.5654 14.7284,72.3988 14.5,72C 15.3805,71.2917 16.0472,70.4584 16.5,69.5C 17.9063,69.0269 18.573,68.0269 18.5,66.5C 20.4113,65.925 22.078,64.925 23.5,63.5C 25.153,63.3404 26.4863,62.6737 27.5,61.5C 30.4398,60.7979 33.2731,59.7979 36,58.5C 39.0567,59.4505 42.2234,59.7839 45.5,59.5C 45.2627,58.209 45.596,57.209 46.5,56.5 Z"/></g>
<g><path style="opacity:1" fill="#602b72" d="M 23.5,58.5 C 24.9989,59.494 26.6656,59.494 28.5,58.5C 29.2389,58.369 29.9056,58.5357 30.5,59C 29.1667,59.6667 27.8333,60.3333 26.5,61C 26.7284,61.3988 27.0618,61.5654 27.5,61.5C 26.4863,62.6737 25.153,63.3404 23.5,63.5C 22.506,61.6656 22.506,59.9989 23.5,58.5 Z"/></g>
<g><path style="opacity:1" fill="#22386b" d="M 48.5,58.5 C 50.7028,58.6036 52.7028,59.2702 54.5,60.5C 55.9733,61.072 57.3066,61.9054 58.5,63C 56.5,62.6667 54.5,62.3333 52.5,62C 57.0593,64.6043 60.7259,68.1043 63.5,72.5C 63.1667,72.8333 62.8333,73.1667 62.5,73.5C 59.65,71.5729 56.9833,69.4062 54.5,67C 46.222,62.4451 37.8887,62.4451 29.5,67C 24.6549,70.3564 19.9883,73.8564 15.5,77.5C 15.5,75.8333 15.5,74.1667 15.5,72.5C 17.6148,70.1093 20.2814,68.7759 23.5,68.5C 23.6263,65.405 25.293,63.5717 28.5,63C 35.4171,61.472 42.0837,59.972 48.5,58.5 Z"/></g>
<g><path style="opacity:1" fill="#e3dde4" d="M 148.5,60.5 C 150.167,61.8333 151.833,63.1667 153.5,64.5C 153.083,65.1239 152.416,65.4573 151.5,65.5C 149.823,64.8131 148.156,64.1465 146.5,63.5C 146.782,62.2223 147.449,61.2223 148.5,60.5 Z"/></g>
<g><path style="opacity:1" fill="#f8e5eb" d="M 168.5,68.5 C 168.5,69.8333 168.5,71.1667 168.5,72.5C 165.167,72.5 161.833,72.5 158.5,72.5C 155.913,71.3515 154.913,69.6848 155.5,67.5C 158.668,67.1728 160.168,65.5062 160,62.5C 156.758,65.2593 154.258,64.5927 152.5,60.5C 157.666,60.6502 162.666,60.1502 167.5,59C 166.67,60.7467 165.67,62.4134 164.5,64C 165.424,65.8114 166.257,65.6447 167,63.5C 167.352,65.2475 167.852,66.9142 168.5,68.5 Z"/></g>
<g><path style="opacity:1" fill="#2d2129" d="M 50.5,46.5 C 51.791,46.2627 52.791,46.596 53.5,47.5C 47.7316,49.2971 41.7316,49.9638 35.5,49.5C 32.6108,49.0538 29.9441,48.0538 27.5,46.5C 15.1464,51.5194 7.47974,60.5194 4.5,73.5C 3.59603,74.209 3.26269,75.209 3.5,76.5C 1.15602,82.9803 2.48935,88.4803 7.5,93C 6.83333,93.6667 6.16667,93.6667 5.5,93C 2.87922,90.8859 0.879222,88.3859 -0.5,85.5C -0.5,84.1667 -0.5,82.8333 -0.5,81.5C 0.221579,81.9175 0.721579,82.5842 1,83.5C 2.31653,64.8373 11.4832,51.8373 28.5,44.5C 29.7003,45.5312 31.0337,46.3645 32.5,47C 38.5508,47.746 44.5508,47.5793 50.5,46.5 Z"/></g>
<g><path style="opacity:1" fill="#9e6988" d="M 118.5,61.5 C 118.5,61.8333 118.5,62.1667 118.5,62.5C 114.473,65.8604 110.806,69.5271 107.5,73.5C 108.967,68.653 111.634,64.4863 115.5,61C 116.577,60.5304 117.577,60.6971 118.5,61.5 Z"/></g>
<g><path style="opacity:1" fill="#dca1b6" d="M 18.5,66.5 C 18.573,68.0269 17.9063,69.0269 16.5,69.5C 15.7611,69.631 15.0944,69.4643 14.5,69C 15.4709,67.5187 16.8042,66.6854 18.5,66.5 Z"/></g>
<g><path style="opacity:1" fill="#293762" d="M 146.5,63.5 C 148.156,64.1465 149.823,64.8131 151.5,65.5C 152.416,65.4573 153.083,65.1239 153.5,64.5C 154.906,64.9731 155.573,65.9731 155.5,67.5C 154.913,69.6848 155.913,71.3515 158.5,72.5C 158.833,73.1667 159.167,73.8333 159.5,74.5C 157.167,74.5 154.833,74.5 152.5,74.5C 148.728,71.9059 145.061,69.0726 141.5,66C 135.101,62.3998 128.434,61.7331 121.5,64C 116.727,67.7224 112.061,71.5558 107.5,75.5C 107.5,74.8333 107.5,74.1667 107.5,73.5C 110.806,69.5271 114.473,65.8604 118.5,62.5C 127.919,60.1747 137.252,60.508 146.5,63.5 Z"/></g>
<g><path style="opacity:1" fill="#8d5562" d="M 179.5,42.5 C 179.5,53.1667 179.5,63.8333 179.5,74.5C 177.5,73.8333 175.5,73.1667 173.5,72.5C 174.609,71.71 175.942,71.21 177.5,71C 174.259,70.2069 171.259,70.7069 168.5,72.5C 168.5,71.1667 168.5,69.8333 168.5,68.5C 169.222,68.9175 169.722,69.5842 170,70.5C 170.333,66.5 170.667,62.5 171,58.5C 173.622,52.915 176.456,47.5817 179.5,42.5 Z"/></g>
<g><path style="opacity:1" fill="#794282" d="M 23.5,58.5 C 22.506,59.9989 22.506,61.6656 23.5,63.5C 22.078,64.925 20.4113,65.925 18.5,66.5C 16.8042,66.6854 15.4709,67.5187 14.5,69C 15.0944,69.4643 15.7611,69.631 16.5,69.5C 16.0472,70.4584 15.3805,71.2917 14.5,72C 14.7284,72.3988 15.0618,72.5654 15.5,72.5C 15.5,74.1667 15.5,75.8333 15.5,77.5C 11.4659,77.4955 7.46591,77.1621 3.5,76.5C 3.26269,75.209 3.59603,74.209 4.5,73.5C 7.40516,74.7005 10.4052,74.5339 13.5,73C 11.5,71.6667 9.5,70.3333 7.5,69C 8.67157,68.6466 9.83824,68.8132 11,69.5C 12.221,68.7282 13.221,67.7282 14,66.5C 13.6667,64.8333 13.3333,63.1667 13,61.5C 14.0852,62.2931 15.2519,62.9598 16.5,63.5C 17.8498,62.0499 19.5165,61.3832 21.5,61.5C 20.833,59.1806 20.6664,56.8473 21,54.5C 22.0946,55.6934 22.928,57.0267 23.5,58.5 Z"/></g>
<g><path style="opacity:1" fill="#412960" d="M 54.5,79.5 C 54.6633,81.8568 54.4966,84.1902 54,86.5C 52.4815,87.1634 51.3149,88.1634 50.5,89.5C 50.1667,89.5 49.8333,89.5 49.5,89.5C 50.242,87.0202 51.242,84.6869 52.5,82.5C 52.9234,81.7354 53.2568,80.9021 53.5,80C 52.1153,78.4029 51.4486,76.5695 51.5,74.5C 48.0573,74.6499 46.0573,72.9832 45.5,69.5C 44.7084,70.6998 44.7084,72.0331 45.5,73.5C 40.8433,69.6773 41.51,68.1773 47.5,69C 51.2049,71.574 53.5382,75.074 54.5,79.5 Z"/></g>
<g><path style="opacity:1" fill="#191619" d="M 173.5,72.5 C 170.551,73.6141 168.385,75.6141 167,78.5C 166.601,78.2716 166.435,77.9382 166.5,77.5C 167.167,75.8333 167.833,74.1667 168.5,72.5C 171.259,70.7069 174.259,70.2069 177.5,71C 175.942,71.21 174.609,71.71 173.5,72.5 Z"/></g>
<g><path style="opacity:1" fill="#be7ba8" d="M 158.5,72.5 C 161.833,72.5 165.167,72.5 168.5,72.5C 167.833,74.1667 167.167,75.8333 166.5,77.5C 165.596,76.791 165.263,75.791 165.5,74.5C 163.5,74.5 161.5,74.5 159.5,74.5C 159.167,73.8333 158.833,73.1667 158.5,72.5 Z"/></g>
<g><path style="opacity:1" fill="#fceaed" d="M 173.5,72.5 C 175.5,73.1667 177.5,73.8333 179.5,74.5C 179.5,78.8333 179.5,83.1667 179.5,87.5C 177.772,91.2872 175.772,94.9539 173.5,98.5C 170.833,100.5 168.5,102.833 166.5,105.5C 163.911,106.419 161.911,108.086 160.5,110.5C 158.795,112.192 156.795,113.525 154.5,114.5C 154.167,114.5 153.833,114.5 153.5,114.5C 153.833,113.167 154.167,111.833 154.5,110.5C 156.855,107.044 160.022,104.377 164,102.5C 164.688,101.668 164.521,101.002 163.5,100.5C 160.263,102.967 156.93,104.467 153.5,105C 152.331,107.007 151.665,109.173 151.5,111.5C 150.883,111.611 150.383,111.944 150,112.5C 149.727,110.899 149.227,109.399 148.5,108C 143.916,107.305 139.583,106.138 135.5,104.5C 134.048,103.287 132.714,103.62 131.5,105.5C 129.584,104.752 127.584,104.752 125.5,105.5C 124.078,108.345 121.911,110.678 119,112.5C 116.416,119.883 118.916,124.05 126.5,125C 131.701,125.214 136.701,125.381 141.5,125.5C 140.737,126.268 139.737,126.768 138.5,127C 114.245,129.648 108.245,120.481 120.5,99.5C 123.912,103.749 127.912,104.416 132.5,101.5C 130.234,100.686 127.9,100.186 125.5,100C 126.448,99.5172 127.448,99.3505 128.5,99.5C 130.558,98.0669 132.892,97.4003 135.5,97.5C 137.446,96.9653 138.446,95.632 138.5,93.5C 138.5,93.1667 138.5,92.8333 138.5,92.5C 138.833,92.5 139.167,92.5 139.5,92.5C 139.354,94.9424 140.187,95.6091 142,94.5C 144.907,88.3558 148.574,82.6892 153,77.5C 153.47,76.4232 153.303,75.4232 152.5,74.5C 154.833,74.5 157.167,74.5 159.5,74.5C 161.5,74.5 163.5,74.5 165.5,74.5C 165.263,75.791 165.596,76.791 166.5,77.5C 166.435,77.9382 166.601,78.2716 167,78.5C 168.385,75.6141 170.551,73.6141 173.5,72.5 Z"/></g>
<g><path style="opacity:1" fill="#2c2616" d="M 52.5,82.5 C 51.8826,82.6107 51.3826,82.944 51,83.5C 50.5831,82.244 49.7498,81.5774 48.5,81.5C 48.1667,81.5 47.8333,81.5 47.5,81.5C 47.5905,78.8478 46.9238,76.5145 45.5,74.5C 45.5,74.1667 45.5,73.8333 45.5,73.5C 44.7084,72.0331 44.7084,70.6998 45.5,69.5C 46.0573,72.9832 48.0573,74.6499 51.5,74.5C 51.4486,76.5695 52.1153,78.4029 53.5,80C 53.2568,80.9021 52.9234,81.7354 52.5,82.5 Z"/></g>
<g><path style="opacity:1" fill="#4c4171" d="M 125.5,71.5 C 124.178,71.33 123.011,71.6634 122,72.5C 120.851,75.3926 120.351,78.3926 120.5,81.5C 119.5,81.5 118.5,81.5 117.5,81.5C 117.5,83.8333 117.5,86.1667 117.5,88.5C 114.964,80.6519 116.631,73.8185 122.5,68C 127.086,67.0545 128.086,68.2211 125.5,71.5 Z"/></g>
<g><path style="opacity:1" fill="#2d2921" d="M 37.5,68.5 C 38.675,68.281 39.675,68.6143 40.5,69.5C 36.4447,75.5393 35.778,81.8727 38.5,88.5C 35.1625,90.3304 33.4958,89.3304 33.5,85.5C 32.5,85.5 31.5,85.5 30.5,85.5C 30.9167,79.0054 33.2501,73.3387 37.5,68.5 Z"/></g>
<g><path style="opacity:1" fill="#2f2d2e" d="M 140.5,78.5 C 139.292,79.2341 137.959,79.5674 136.5,79.5C 136.657,80.8734 136.49,82.2068 136,83.5C 135.722,82.5842 135.222,81.9175 134.5,81.5C 134.204,79.597 133.537,77.9303 132.5,76.5C 132.768,74.901 132.434,73.5676 131.5,72.5C 129.615,70.9468 128.615,68.9468 128.5,66.5C 135.5,67.5 139.5,71.5 140.5,78.5 Z"/></g>
<g><path style="opacity:1" fill="#ee7a79" d="M 171.5,76.5 C 172.822,76.33 173.989,76.6634 175,77.5C 175.818,80.2272 175.652,82.8938 174.5,85.5C 173.667,83.5 172.833,81.5 172,79.5C 170.122,81.0429 168.622,82.8762 167.5,85C 168.766,85.3095 169.933,85.8095 171,86.5C 171.814,88.9018 171.647,91.2351 170.5,93.5C 169.833,91.5 169.167,89.5 168.5,87.5C 167.866,89.5668 166.866,91.4002 165.5,93C 165.833,93.3333 166.167,93.6667 166.5,94C 163.203,93.8162 161.203,95.3162 160.5,98.5C 159.44,94.6612 160.94,91.9945 165,90.5C 165.333,87.8333 165.667,85.1667 166,82.5C 168.04,80.6298 169.873,78.6298 171.5,76.5 Z"/></g>
<g><path style="opacity:1" fill="#c782a3" d="M 45.5,74.5 C 46.9238,76.5145 47.5905,78.8478 47.5,81.5C 45.9772,85.6121 46.3105,89.6121 48.5,93.5C 47.1634,94.3149 46.1634,95.4815 45.5,97C 46.0944,97.4643 46.7611,97.631 47.5,97.5C 45.3799,100.866 43.0466,101.199 40.5,98.5C 40.5,97.8333 40.5,97.1667 40.5,96.5C 42.4286,96.7692 44.0953,96.2692 45.5,95C 43.4098,94.3305 41.7432,93.1639 40.5,91.5C 42.0174,91.4894 43.1841,90.8228 44,89.5C 45.2503,84.5805 45.7503,79.5805 45.5,74.5 Z"/></g>
<g><path style="opacity:1" fill="#dc99bb" d="M 33.5,71.5 C 30.5534,76.0159 29.2201,81.0159 29.5,86.5C 27.3803,80.6268 28.7137,75.6268 33.5,71.5 Z"/></g>
<g><path style="opacity:1" fill="#350a63" d="M 120.5,81.5 C 120.833,83.5 121.167,85.5 121.5,87.5C 120.59,90.8143 119.257,91.1477 117.5,88.5C 117.5,86.1667 117.5,83.8333 117.5,81.5C 118.5,81.5 119.5,81.5 120.5,81.5 Z"/></g>
<g><path style="opacity:1" fill="#966d91" d="M 48.5,81.5 C 49.7498,81.5774 50.5831,82.244 51,83.5C 51.3826,82.944 51.8826,82.6107 52.5,82.5C 51.242,84.6869 50.242,87.0202 49.5,89.5C 48.4138,89.38 47.7472,88.7133 47.5,87.5C 48.1556,85.5466 48.4889,83.5466 48.5,81.5 Z"/></g>
<g><path style="opacity:1" fill="#343120" d="M 125.5,71.5 C 124.013,74.2628 123.346,77.2628 123.5,80.5C 123.287,83.5267 123.953,86.1934 125.5,88.5C 126.071,90.36 126.071,92.0267 125.5,93.5C 124.002,93.8342 122.335,93.8342 120.5,93.5C 122.475,91.6381 122.808,89.6381 121.5,87.5C 121.167,85.5 120.833,83.5 120.5,81.5C 120.351,78.3926 120.851,75.3926 122,72.5C 123.011,71.6634 124.178,71.33 125.5,71.5 Z"/></g>
<g><path style="opacity:1" fill="#f1ac8b" d="M 132.5,76.5 C 133.537,77.9303 134.204,79.597 134.5,81.5C 135.092,84.1272 135.425,86.7938 135.5,89.5C 134.85,89.1961 134.183,88.8627 133.5,88.5C 132.509,84.5546 132.176,80.5546 132.5,76.5 Z"/></g>
<g><path style="opacity:1" fill="#744985" d="M 140.5,78.5 C 140.433,80.4008 140.767,82.2341 141.5,84C 140.313,86.7236 139.647,89.5569 139.5,92.5C 139.167,92.5 138.833,92.5 138.5,92.5C 137.306,91.7281 136.306,90.7281 135.5,89.5C 135.425,86.7938 135.092,84.1272 134.5,81.5C 135.222,81.9175 135.722,82.5842 136,83.5C 136.49,82.2068 136.657,80.8734 136.5,79.5C 137.959,79.5674 139.292,79.2341 140.5,78.5 Z"/></g>
<g><path style="opacity:1" fill="#461b69" d="M 37.5,68.5 C 33.2501,73.3387 30.9167,79.0054 30.5,85.5C 31.5,85.5 32.5,85.5 33.5,85.5C 33.4958,89.3304 35.1625,90.3304 38.5,88.5C 38.9321,89.7095 39.5987,90.7095 40.5,91.5C 41.7432,93.1639 43.4098,94.3305 45.5,95C 44.0953,96.2692 42.4286,96.7692 40.5,96.5C 39.5,96.5 38.5,96.5 37.5,96.5C 35.3891,97.9681 33.5557,97.6348 32,95.5C 30.698,92.6249 29.8647,89.6249 29.5,86.5C 29.2201,81.0159 30.5534,76.0159 33.5,71.5C 34.2623,69.7376 35.5956,68.7376 37.5,68.5 Z"/></g>
<g><path style="opacity:1" fill="#856ca3" d="M 54.5,79.5 C 55.6899,84.3783 55.5232,89.3783 54,94.5C 53.2904,95.9733 52.1238,96.6399 50.5,96.5C 51.0818,94.002 51.0818,91.6687 50.5,89.5C 51.3149,88.1634 52.4815,87.1634 54,86.5C 54.4966,84.1902 54.6633,81.8568 54.5,79.5 Z"/></g>
<g><path style="opacity:1" fill="#6e3c6b" d="M 121.5,87.5 C 122.808,89.6381 122.475,91.6381 120.5,93.5C 120.5,94.1667 120.5,94.8333 120.5,95.5C 118.552,93.6796 117.552,91.3462 117.5,88.5C 119.257,91.1477 120.59,90.8143 121.5,87.5 Z"/></g>
<g><path style="opacity:1" fill="#39135e" d="M 125.5,88.5 C 126.391,89.1098 127.391,89.4431 128.5,89.5C 129.263,90.2679 130.263,90.7679 131.5,91C 130.619,91.7083 129.953,92.5416 129.5,93.5C 128.167,93.5 126.833,93.5 125.5,93.5C 126.071,92.0267 126.071,90.36 125.5,88.5 Z"/></g>
<g><path style="opacity:1" fill="#ce708f" d="M 179.5,87.5 C 179.5,88.8333 179.5,90.1667 179.5,91.5C 178.211,94.3915 176.211,96.7248 173.5,98.5C 175.772,94.9539 177.772,91.2872 179.5,87.5 Z"/></g>
<g><path style="opacity:1" fill="#b79bb0" d="M 131.5,72.5 C 132.434,73.5676 132.768,74.901 132.5,76.5C 132.176,80.5546 132.509,84.5546 133.5,88.5C 134.183,88.8627 134.85,89.1961 135.5,89.5C 136.306,90.7281 137.306,91.7281 138.5,92.5C 138.5,92.8333 138.5,93.1667 138.5,93.5C 136.121,92.4331 135.121,93.4331 135.5,96.5C 134.566,95.4324 134.232,94.099 134.5,92.5C 132.857,92.4802 131.524,93.1468 130.5,94.5C 129.893,94.3764 129.56,94.0431 129.5,93.5C 129.953,92.5416 130.619,91.7083 131.5,91C 130.263,90.7679 129.263,90.2679 128.5,89.5C 129.496,89.5858 130.329,89.2524 131,88.5C 131.499,83.1771 131.666,77.8437 131.5,72.5 Z"/></g>
<g><path style="opacity:1" fill="#2c1c30" d="M 138.5,93.5 C 138.446,95.632 137.446,96.9653 135.5,97.5C 135.5,97.1667 135.5,96.8333 135.5,96.5C 135.121,93.4331 136.121,92.4331 138.5,93.5 Z"/></g>
<g><path style="opacity:1" fill="#9dea51" d="M 125.5,93.5 C 125.557,94.609 125.89,95.609 126.5,96.5C 125.295,97.6857 123.961,97.6857 122.5,96.5C 122.158,95.6618 121.492,95.3284 120.5,95.5C 120.5,94.8333 120.5,94.1667 120.5,93.5C 122.335,93.8342 124.002,93.8342 125.5,93.5 Z"/></g>
<g><path style="opacity:1" fill="#451b6d" d="M 48.5,93.5 C 49.9538,95.2633 49.6204,96.5967 47.5,97.5C 46.7611,97.631 46.0944,97.4643 45.5,97C 46.1634,95.4815 47.1634,94.3149 48.5,93.5 Z"/></g>
<g><path style="opacity:1" fill="#ee5ca2" d="M 135.5,96.5 C 135.5,96.8333 135.5,97.1667 135.5,97.5C 132.892,97.4003 130.558,98.0669 128.5,99.5C 128.068,98.2905 127.401,97.2905 126.5,96.5C 125.89,95.609 125.557,94.609 125.5,93.5C 126.833,93.5 128.167,93.5 129.5,93.5C 129.56,94.0431 129.893,94.3764 130.5,94.5C 131.524,93.1468 132.857,92.4802 134.5,92.5C 134.232,94.099 134.566,95.4324 135.5,96.5 Z"/></g>
<g><path style="opacity:1" fill="#f76d5a" d="M -0.5,94.5 C 1.14175,97.1025 2.80841,99.7692 4.5,102.5C 3.83333,103.833 3.16667,103.833 2.5,102.5C 1.72549,100.604 0.72549,98.937 -0.5,97.5C -0.5,96.5 -0.5,95.5 -0.5,94.5 Z"/></g>
<g><path style="opacity:1" fill="#a2e653" d="M 37.5,96.5 C 38.5,96.5 39.5,96.5 40.5,96.5C 40.5,97.1667 40.5,97.8333 40.5,98.5C 38.4017,99.9143 37.4017,99.2476 37.5,96.5 Z"/></g>
<g><path style="opacity:1" fill="#b2857b" d="M 179.5,95.5 C 179.5,105.833 179.5,116.167 179.5,126.5C 174.344,120.51 171.678,113.51 171.5,105.5C 173.817,101.854 176.484,98.5203 179.5,95.5 Z"/></g>
<g><path style="opacity:1" fill="#665764" d="M 122.5,96.5 C 123.961,97.6857 125.295,97.6857 126.5,96.5C 127.401,97.2905 128.068,98.2905 128.5,99.5C 127.448,99.3505 126.448,99.5172 125.5,100C 127.9,100.186 130.234,100.686 132.5,101.5C 127.912,104.416 123.912,103.749 120.5,99.5C 120.782,98.2223 121.449,97.2223 122.5,96.5 Z"/></g>
<g><path style="opacity:1" fill="#af8db3" d="M 49.5,103.5 C 49.0831,102.876 48.4164,102.543 47.5,102.5C 45.1807,103.064 42.8474,103.564 40.5,104C 41.056,104.383 41.3893,104.883 41.5,105.5C 41.5634,106.66 41.2301,107.994 40.5,109.5C 39.8485,110.091 39.1818,110.757 38.5,111.5C 37.7025,111.043 37.3691,110.376 37.5,109.5C 37.631,108.761 37.4643,108.094 37,107.5C 35.9887,108.337 34.8221,108.67 33.5,108.5C 31.5069,107.528 31.1736,106.195 32.5,104.5C 34.8056,104.993 37.139,105.326 39.5,105.5C 39.5,104.5 39.5,103.5 39.5,102.5C 42.9588,102.469 46.2921,101.802 49.5,100.5C 50.7759,101.614 50.7759,102.614 49.5,103.5 Z"/></g>
<g><path style="opacity:1" fill="#47314c" d="M 49.5,103.5 C 48.7095,104.401 47.7095,105.068 46.5,105.5C 44.8333,105.5 43.1667,105.5 41.5,105.5C 41.3893,104.883 41.056,104.383 40.5,104C 42.8474,103.564 45.1807,103.064 47.5,102.5C 48.4164,102.543 49.0831,102.876 49.5,103.5 Z"/></g>
<g><path style="opacity:1" fill="#d57172" d="M 154.5,110.5 C 154.649,109.448 154.483,108.448 154,107.5C 153.392,109.066 152.558,110.4 151.5,111.5C 151.665,109.173 152.331,107.007 153.5,105C 156.93,104.467 160.263,102.967 163.5,100.5C 164.521,101.002 164.688,101.668 164,102.5C 160.022,104.377 156.855,107.044 154.5,110.5 Z"/></g>
<g><path style="opacity:1" fill="#b5556c" d="M 166.5,105.5 C 165.089,107.914 163.089,109.581 160.5,110.5C 161.911,108.086 163.911,106.419 166.5,105.5 Z"/></g>
<g><path style="opacity:1" fill="#f66858" d="M 7.5,107.5 C 7.5,108.167 7.5,108.833 7.5,109.5C 5.28721,109.152 3.28721,108.319 1.5,107C 2.78387,106.316 3.95054,106.483 5,107.5C 5.68706,103.674 6.52039,103.674 7.5,107.5 Z"/></g>
<g><path style="opacity:1" fill="#fdc0d2" d="M 135.5,104.5 C 139.583,106.138 143.916,107.305 148.5,108C 149.227,109.399 149.727,110.899 150,112.5C 150.383,111.944 150.883,111.611 151.5,111.5C 149.622,117.587 146.955,123.254 143.5,128.5C 143.715,126.821 143.048,125.821 141.5,125.5C 136.701,125.381 131.701,125.214 126.5,125C 118.916,124.05 116.416,119.883 119,112.5C 121.911,110.678 124.078,108.345 125.5,105.5C 125.215,107.288 125.548,108.955 126.5,110.5C 128.786,109.58 131.119,109.58 133.5,110.5C 133.259,108.114 133.925,106.114 135.5,104.5 Z"/></g>
<g><path style="opacity:1" fill="#ba86b1" d="M 135.5,104.5 C 133.925,106.114 133.259,108.114 133.5,110.5C 131.119,109.58 128.786,109.58 126.5,110.5C 125.548,108.955 125.215,107.288 125.5,105.5C 127.584,104.752 129.584,104.752 131.5,105.5C 132.714,103.62 134.048,103.287 135.5,104.5 Z"/></g>
<g><path style="opacity:1" fill="#b2847a" d="M 167.5,108.5 C 168.117,108.611 168.617,108.944 169,109.5C 170.667,114.833 172.333,120.167 174,125.5C 175.617,127.763 177.45,129.763 179.5,131.5C 179.5,135.5 179.5,139.5 179.5,143.5C 170.251,134.994 165.251,124.327 164.5,111.5C 165.167,110.167 166.167,109.167 167.5,108.5 Z"/></g>
<g><path style="opacity:1" fill="#191316" d="M 179.5,91.5 C 179.5,92.8333 179.5,94.1667 179.5,95.5C 176.484,98.5203 173.817,101.854 171.5,105.5C 170.128,106.512 168.795,107.512 167.5,108.5C 166.167,109.167 165.167,110.167 164.5,111.5C 162.632,112.263 160.965,113.263 159.5,114.5C 157.801,114.527 156.467,115.194 155.5,116.5C 153.323,117.504 152.989,116.838 154.5,114.5C 156.795,113.525 158.795,112.192 160.5,110.5C 163.089,109.581 165.089,107.914 166.5,105.5C 168.5,102.833 170.833,100.5 173.5,98.5C 176.211,96.7248 178.211,94.3915 179.5,91.5 Z"/></g>
<g><path style="opacity:1" fill="#b3857c" d="M -0.5,114.5 C 1.75398,115.124 3.42065,116.457 4.5,118.5C 8.23521,126.381 10.5685,134.714 11.5,143.5C 10.599,152.104 8.59904,160.437 5.5,168.5C 2.93956,171.642 0.939558,174.975 -0.5,178.5C -0.5,157.167 -0.5,135.833 -0.5,114.5 Z"/></g>
<g><path style="opacity:1" fill="#b4847c" d="M 159.5,114.5 C 160.54,120.295 162.374,125.962 165,131.5C 167,134.833 169.667,137.5 173,139.5C 175.03,143.009 177.196,146.342 179.5,149.5C 179.5,159.5 179.5,169.5 179.5,179.5C 176.833,179.5 174.167,179.5 171.5,179.5C 174.779,172.038 175.279,164.372 173,156.5C 166.914,150.678 162.581,143.678 160,135.5C 157.773,129.322 156.273,122.989 155.5,116.5C 156.467,115.194 157.801,114.527 159.5,114.5 Z"/></g>
<g><path style="opacity:1" fill="#23171b" d="M 7.5,107.5 C 8.16667,108.167 8.83333,108.833 9.5,109.5C 11.4068,114.984 14.0734,119.984 17.5,124.5C 18.7389,127.589 20.2389,130.589 22,133.5C 29.8445,142.525 38.6778,150.192 48.5,156.5C 49.0256,158.23 50.0256,159.564 51.5,160.5C 53.4689,166.649 54.4689,172.982 54.5,179.5C 53.8333,179.5 53.1667,179.5 52.5,179.5C 51.341,176.338 50.0076,173.171 48.5,170C 48.5481,168.967 48.8814,168.634 49.5,169C 50.1905,170.067 50.6905,171.234 51,172.5C 51.4107,167.555 50.4107,162.888 48,158.5C 44.2828,155.817 40.4494,153.317 36.5,151C 31.5574,145.887 26.5574,141.054 21.5,136.5C 20.6167,133.296 18.9501,130.629 16.5,128.5C 14.9129,122.361 10.9129,119.028 4.5,118.5C 3.42065,116.457 1.75398,115.124 -0.5,114.5C -0.5,113.5 -0.5,112.5 -0.5,111.5C 1.62976,113.127 3.62976,114.96 5.5,117C 6.79323,117.49 8.12656,117.657 9.5,117.5C 9.41622,114.673 8.74955,112.006 7.5,109.5C 7.5,108.833 7.5,108.167 7.5,107.5 Z"/></g>
<g><path style="opacity:1" fill="#8b5f63" d="M 171.5,105.5 C 171.678,113.51 174.344,120.51 179.5,126.5C 179.5,128.167 179.5,129.833 179.5,131.5C 177.45,129.763 175.617,127.763 174,125.5C 172.333,120.167 170.667,114.833 169,109.5C 168.617,108.944 168.117,108.611 167.5,108.5C 168.795,107.512 170.128,106.512 171.5,105.5 Z"/></g>
<g><path style="opacity:1" fill="#865a68" d="M 4.5,118.5 C 10.9129,119.028 14.9129,122.361 16.5,128.5C 16.4563,134.631 16.2896,140.964 16,147.5C 12.2262,158.658 7.39282,169.325 1.5,179.5C 0.833333,179.5 0.166667,179.5 -0.5,179.5C -0.5,179.167 -0.5,178.833 -0.5,178.5C 0.939558,174.975 2.93956,171.642 5.5,168.5C 8.59904,160.437 10.599,152.104 11.5,143.5C 10.5685,134.714 8.23521,126.381 4.5,118.5 Z"/></g>
<g><path style="opacity:1" fill="#fce6ed" d="M 32.5,104.5 C 31.1736,106.195 31.5069,107.528 33.5,108.5C 28.752,108.275 24.0853,108.775 19.5,110C 17.4765,112.64 17.1432,115.473 18.5,118.5C 20.5,119.833 22.1667,121.5 23.5,123.5C 30.0196,125.491 36.6862,125.991 43.5,125C 48.6488,122.871 50.8154,119.037 50,113.5C 47.2653,111.189 44.0987,109.855 40.5,109.5C 41.2301,107.994 41.5634,106.66 41.5,105.5C 43.1667,105.5 44.8333,105.5 46.5,105.5C 46.0825,106.222 45.4158,106.722 44.5,107C 47.5242,108.532 50.0242,110.699 52,113.5C 52.6667,116.833 52.6667,120.167 52,123.5C 47.3883,127.37 42.055,129.037 36,128.5C 29.4958,128.918 23.6625,127.251 18.5,123.5C 17.8933,123.624 17.56,123.957 17.5,124.5C 14.0734,119.984 11.4068,114.984 9.5,109.5C 10.9245,107.856 12.5911,106.356 14.5,105C 20.3306,103.931 26.3306,103.765 32.5,104.5 Z"/></g>
<g><path style="opacity:1" fill="#ffd0de" d="M 37.5,109.5 C 33.4862,109.334 29.4862,109.501 25.5,110C 20.8848,111.077 19.3848,113.91 21,118.5C 27.0792,124.616 34.2458,126.116 42.5,123C 46.3493,120.652 48.016,117.152 47.5,112.5C 44.539,112.536 42.2057,111.536 40.5,109.5C 44.0987,109.855 47.2653,111.189 50,113.5C 50.8154,119.037 48.6488,122.871 43.5,125C 36.6862,125.991 30.0196,125.491 23.5,123.5C 22.1667,121.5 20.5,119.833 18.5,118.5C 17.1432,115.473 17.4765,112.64 19.5,110C 24.0853,108.775 28.752,108.275 33.5,108.5C 34.8221,108.67 35.9887,108.337 37,107.5C 37.4643,108.094 37.631,108.761 37.5,109.5 Z"/></g>
<g><path style="opacity:1" fill="#feb9cd" d="M 37.5,109.5 C 37.3691,110.376 37.7025,111.043 38.5,111.5C 39.1818,110.757 39.8485,110.091 40.5,109.5C 42.2057,111.536 44.539,112.536 47.5,112.5C 48.016,117.152 46.3493,120.652 42.5,123C 34.2458,126.116 27.0792,124.616 21,118.5C 19.3848,113.91 20.8848,111.077 25.5,110C 29.4862,109.501 33.4862,109.334 37.5,109.5 Z"/></g>
<g><path style="opacity:1" fill="#b1827b" d="M 150.5,120.5 C 151.324,124.312 151.824,128.312 152,132.5C 154.119,136.354 155.953,140.354 157.5,144.5C 155.944,151.722 154.611,159.055 153.5,166.5C 151.824,153.447 149.824,140.447 147.5,127.5C 148.227,125.046 149.227,122.713 150.5,120.5 Z"/></g>
<g><path style="opacity:1" fill="#74414c" d="M 164.5,111.5 C 165.251,124.327 170.251,134.994 179.5,143.5C 179.5,145.5 179.5,147.5 179.5,149.5C 177.196,146.342 175.03,143.009 173,139.5C 169.667,137.5 167,134.833 165,131.5C 162.374,125.962 160.54,120.295 159.5,114.5C 160.965,113.263 162.632,112.263 164.5,111.5 Z"/></g>
<g><path style="opacity:1" fill="#f74956" d="M 73.5,133.5 C 73.5,133.833 73.5,134.167 73.5,134.5C 70.3661,133.099 67.3661,131.432 64.5,129.5C 63.6143,128.675 63.281,127.675 63.5,126.5C 64.552,126.351 65.552,126.517 66.5,127C 68.7293,129.4 71.0626,131.567 73.5,133.5 Z"/></g>
<g><path style="opacity:1" fill="#f74a57" d="M 97.5,132.5 C 96.5,132.5 95.5,132.5 94.5,132.5C 96.2775,130.106 98.6108,128.44 101.5,127.5C 102.932,127.733 103.432,128.4 103,129.5C 101.417,130.971 99.5834,131.971 97.5,132.5 Z"/></g>
<g><path style="opacity:1" fill="#b5847d" d="M 16.5,128.5 C 18.9501,130.629 20.6167,133.296 21.5,136.5C 23.4996,152.148 20.1662,166.481 11.5,179.5C 8.16667,179.5 4.83333,179.5 1.5,179.5C 7.39282,169.325 12.2262,158.658 16,147.5C 16.2896,140.964 16.4563,134.631 16.5,128.5 Z"/></g>
<g><path style="opacity:1" fill="#85595d" d="M 153.5,114.5 C 153.833,114.5 154.167,114.5 154.5,114.5C 152.989,116.838 153.323,117.504 155.5,116.5C 156.273,122.989 157.773,129.322 160,135.5C 162.581,143.678 166.914,150.678 173,156.5C 175.279,164.372 174.779,172.038 171.5,179.5C 168.5,179.5 165.5,179.5 162.5,179.5C 166.079,172.579 167.245,165.245 166,157.5C 163.993,154.664 161.826,151.997 159.5,149.5C 158.906,157.134 157.572,164.634 155.5,172C 156.966,174.432 158.299,176.932 159.5,179.5C 151.5,179.5 143.5,179.5 135.5,179.5C 138.156,171.39 139.99,163.056 141,154.5C 141.837,160.837 142.503,160.503 143,153.5C 143.819,147.319 143.653,141.319 142.5,135.5C 142.56,134.957 142.893,134.624 143.5,134.5C 144.314,136.766 144.814,139.1 145,141.5C 145.333,137.5 145.667,133.5 146,129.5C 146.278,128.584 146.778,127.918 147.5,127.5C 149.824,140.447 151.824,153.447 153.5,166.5C 154.611,159.055 155.944,151.722 157.5,144.5C 155.953,140.354 154.119,136.354 152,132.5C 151.824,128.312 151.324,124.312 150.5,120.5C 151.13,118.25 152.13,116.25 153.5,114.5 Z"/></g>
<g><path style="opacity:1" fill="#8b596a" d="M 94.5,132.5 C 95.5,132.5 96.5,132.5 97.5,132.5C 93.4315,135.868 88.7648,138.201 83.5,139.5C 79.8792,138.356 76.5459,136.69 73.5,134.5C 73.5,134.167 73.5,133.833 73.5,133.5C 76.7676,134.924 79.9343,136.591 83,138.5C 86.7925,136.354 90.6258,134.354 94.5,132.5 Z"/></g>
<g><path style="opacity:1" fill="#38262d" d="M 154.5,110.5 C 154.167,111.833 153.833,113.167 153.5,114.5C 152.13,116.25 151.13,118.25 150.5,120.5C 149.227,122.713 148.227,125.046 147.5,127.5C 146.778,127.918 146.278,128.584 146,129.5C 145.667,133.5 145.333,137.5 145,141.5C 144.814,139.1 144.314,136.766 143.5,134.5C 142.893,134.624 142.56,134.957 142.5,135.5C 142.666,140.844 142.499,146.177 142,151.5C 141.863,146.735 141.363,142.735 140.5,139.5C 137.198,142.967 133.698,146.3 130,149.5C 129.667,150.5 129.333,151.5 129,152.5C 127.933,151.809 126.766,151.309 125.5,151C 127.041,149.629 128.375,148.129 129.5,146.5C 133.5,144.5 136.5,141.5 138.5,137.5C 139.917,134.331 141.583,131.331 143.5,128.5C 146.955,123.254 149.622,117.587 151.5,111.5C 152.558,110.4 153.392,109.066 154,107.5C 154.483,108.448 154.649,109.448 154.5,110.5 Z"/></g>
<g><path style="opacity:1" fill="#79374e" d="M 138.5,137.5 C 136.5,141.5 133.5,144.5 129.5,146.5C 132.167,143.167 135.167,140.167 138.5,137.5 Z"/></g>
<g><path style="opacity:1" fill="#b3857c" d="M 162.5,179.5 C 161.5,179.5 160.5,179.5 159.5,179.5C 158.299,176.932 156.966,174.432 155.5,172C 157.572,164.634 158.906,157.134 159.5,149.5C 161.826,151.997 163.993,154.664 166,157.5C 167.245,165.245 166.079,172.579 162.5,179.5 Z"/></g>
<g><path style="opacity:1" fill="#82565f" d="M 21.5,136.5 C 26.5574,141.054 31.5574,145.887 36.5,151C 40.4494,153.317 44.2828,155.817 48,158.5C 50.4107,162.888 51.4107,167.555 51,172.5C 50.6905,171.234 50.1905,170.067 49.5,169C 48.8814,168.634 48.5481,168.967 48.5,170C 50.0076,173.171 51.341,176.338 52.5,179.5C 43.5,179.5 34.5,179.5 25.5,179.5C 27.2023,167.864 27.5356,156.197 26.5,144.5C 26.2391,157.28 22.5725,168.947 15.5,179.5C 14.1667,179.5 12.8333,179.5 11.5,179.5C 20.1662,166.481 23.4996,152.148 21.5,136.5 Z"/></g>
<g><path style="opacity:1" fill="#b2847a" d="M 25.5,179.5 C 22.1667,179.5 18.8333,179.5 15.5,179.5C 22.5725,168.947 26.2391,157.28 26.5,144.5C 27.5356,156.197 27.2023,167.864 25.5,179.5 Z"/></g>
<g><path style="opacity:1" fill="#fbdbda" d="M 51.5,160.5 C 60.3367,166.835 70.1701,170.501 81,171.5C 92.9585,170.125 104.125,166.458 114.5,160.5C 115.49,166.645 115.823,172.978 115.5,179.5C 95.1667,179.5 74.8333,179.5 54.5,179.5C 54.4689,172.982 53.4689,166.649 51.5,160.5 Z"/></g>
<g><path style="opacity:1" fill="#fa6e4b" d="M 118.5,154.5 C 118.067,157.191 116.733,159.191 114.5,160.5C 104.125,166.458 92.9585,170.125 81,171.5C 70.1701,170.501 60.3367,166.835 51.5,160.5C 50.0256,159.564 49.0256,158.23 48.5,156.5C 55.4469,159.973 62.4469,163.473 69.5,167C 72.7106,168.348 76.0439,169.182 79.5,169.5C 93.7534,167.421 106.753,162.421 118.5,154.5 Z"/></g>
<g><path style="opacity:1" fill="#3f2027" d="M 121.5,152.5 C 122.239,152.369 122.906,152.536 123.5,153C 121.19,154.637 119.69,156.804 119,159.5C 118.5,166.158 118.334,172.825 118.5,179.5C 117.5,179.5 116.5,179.5 115.5,179.5C 115.823,172.978 115.49,166.645 114.5,160.5C 116.733,159.191 118.067,157.191 118.5,154.5C 118.973,153.094 119.973,152.427 121.5,152.5 Z"/></g>
<g><path style="opacity:1" fill="#a35e79" d="M 142.5,135.5 C 143.653,141.319 143.819,147.319 143,153.5C 142.503,160.503 141.837,160.837 141,154.5C 139.99,163.056 138.156,171.39 135.5,179.5C 135.167,179.5 134.833,179.5 134.5,179.5C 137.97,166.407 139.97,153.073 140.5,139.5C 141.363,142.735 141.863,146.735 142,151.5C 142.499,146.177 142.666,140.844 142.5,135.5 Z"/></g>
<g><path style="opacity:1" fill="#855561" d="M 140.5,139.5 C 139.97,153.073 137.97,166.407 134.5,179.5C 129.167,179.5 123.833,179.5 118.5,179.5C 118.334,172.825 118.5,166.158 119,159.5C 119.69,156.804 121.19,154.637 123.5,153C 122.906,152.536 122.239,152.369 121.5,152.5C 123.878,150.122 126.545,148.122 129.5,146.5C 128.375,148.129 127.041,149.629 125.5,151C 126.766,151.309 127.933,151.809 129,152.5C 129.333,151.5 129.667,150.5 130,149.5C 133.698,146.3 137.198,142.967 140.5,139.5 Z"/></g>
</svg>
